<?xml version="1.0" standalone="no"?>
<!DOCTYPE svg PUBLIC "-//W3C//DTD SVG 20010904//EN"
 "http://www.w3.org/TR/2001/REC-SVG-20010904/DTD/svg10.dtd">
<svg version="1.0" xmlns="http://www.w3.org/2000/svg"
 width="512.000000pt" height="512.000000pt" viewBox="0 0 512.000000 512.000000"
 preserveAspectRatio="xMidYMid meet">
<metadata>
Created by potrace 1.11, written by Peter Selinger 2001-2013
</metadata>
<g transform="translate(0.000000,512.000000) scale(0.100000,-0.100000)"
fill="#000000" stroke="none">
<path d="M738 4965 c-1 -2 -19 -6 -38 -9 -269 -43 -510 -254 -600 -526 -28
-83 -34 -125 -34 -235 -1 -196 47 -338 168 -492 l57 -72 -54 -108 c-30 -59
-64 -135 -76 -168 -13 -33 -27 -69 -32 -80 -33 -76 -96 -342 -115 -485 -19
-148 -8 -511 20 -650 2 -14 10 -50 16 -81 5 -30 23 -100 39 -155 224 -780 887
-1419 1716 -1653 121 -34 272 -67 350 -76 28 -3 65 -8 83 -11 123 -17 392 -22
537 -10 514 42 997 223 1398 525 135 101 161 136 137 181 -8 14 -1 26 30 58
63 63 65 64 94 52 15 -6 35 -6 49 -1 27 10 152 160 236 282 54 79 181 298 181
312 0 3 14 35 30 71 60 130 137 384 156 516 27 190 31 244 29 405 -3 203 -6
239 -42 415 -34 171 -100 365 -178 527 -70 145 -69 137 -22 188 80 87 156 249
175 375 8 56 9 213 1 260 -43 244 -201 456 -426 569 -111 55 -202 75 -343 75
-142 -1 -212 -15 -330 -71 -89 -41 -166 -97 -236 -170 -28 -29 -54 -50 -57
-46 -4 4 -22 12 -40 18 -17 7 -70 27 -117 45 -74 27 -224 75 -270 85 -96 21
-232 47 -264 51 -23 3 -52 7 -66 10 -140 23 -541 23 -680 0 -14 -3 -59 -10
-100 -16 -178 -28 -354 -75 -510 -135 -171 -66 -151 -66 -212 -4 -148 152
-325 228 -540 234 -64 2 -118 2 -120 0z"/>
</g>
</svg>
